# xmcd
#
# Track frame offsets:
#	150
#	20545
#	36247
#	51625
#	72745
#	88537
#	102477
#	121875
#	138230
#	148637
#	163082
#
# Disc length: 2426 seconds
#
# Revision: 0
# Processed by: cddbd v1.5.2PL0 Copyright (c) Steve Scherf et al.
# Submitted via: EasyCDDAExtractor 12.0.1.1
#
DISCID=a409780b
DTITLE=Slayer - Diabolus In Musica
DYEAR=1900
DGENRE=
TTITLE0=Bitter Peace
TTITLE1=Death's Head
TTITLE2=Stain of Mind
TTITLE3=Overt Enemy
TTITLE4=Perversions of Pain
TTITLE5=Love to Hate
TTITLE6=Desire
TTITLE7=In the Name of God
TTITLE8=Scrum
TTITLE9=Screaming from the Sky
TTITLE10=Point
EXTD=
EXTT0=
EXTT1=
EXTT2=
EXTT3=
EXTT4=
EXTT5=
EXTT6=
EXTT7=
EXTT8=
EXTT9=
EXTT10=
PLAYORDER=
